<svg id="Layer_1" data-name="Layer 1" xmlns="http://www.w3.org/2000/svg" viewBox="0 0 408.48 436"><defs><style>.cls-1{fill:#404041;}</style></defs><path class="cls-1" d="M305.2,271.77V247.49c0-8.64-7-14.4-7-14.4l-30.06-7.89,21.1-5.48,7.55-21.12c-7.55-3-10.56-16.6-10.56-16.6S281,154.08,281,133s31.68-22.63,31.68-22.63h.3s31.69,1.52,31.69,22.63-5.28,49-5.28,49-3,13.58-10.57,16.6l7.55,21.12,37.51,9.77s5.49,4.53,5.49,11.33v30.95H305.2Z" transform="translate(-13.76)"/><path class="cls-1" d="M422.24,204.24A204.33,204.33,0,0,1,292.77,394.36a79.83,79.83,0,0,0,2-12.67A193.32,193.32,0,0,0,411.29,204.24c0-106.76-86.53-193.3-193.29-193.3S24.68,97.48,24.68,204.24a193.34,193.34,0,0,0,116.6,177.45,74.49,74.49,0,0,0,1.95,12.67A204.3,204.3,0,0,1,13.76,204.24C13.76,91.45,105.19,0,218,0S422.24,91.45,422.24,204.24Z" transform="translate(-13.76)"/><path class="cls-1" d="M218,316.5a59.75,59.75,0,1,1-59.75,59.73A59.74,59.74,0,0,1,218,316.5Z" transform="translate(-13.76)"/><path class="cls-1" d="M298.26,290.26H137.74V253c0-8.18,6.59-13.64,6.59-13.64l45.27-11.86L198.71,202C189.6,198.35,186,182,186,182s-6.39-33.7-6.39-59.15,38.24-27.3,38.24-27.3h.36s38.21,1.82,38.21,27.3S250,182,250,182s-3.65,16.37-12.74,20l9.09,25.46,45.28,11.86s6.6,5.46,6.6,13.64Z" transform="translate(-13.76)"/><path class="cls-1" d="M104.63,271.77H57.09V240.82c0-6.8,5.49-11.33,5.49-11.33l37.51-9.77,7.55-21.12c-7.55-3-10.56-16.6-10.56-16.6s-5.28-27.92-5.28-49,31.68-22.63,31.68-22.63h.3s31.68,1.52,31.68,22.63-5.28,49-5.28,49-3,13.58-10.56,16.6l7.55,21.12,21.1,5.48-30.05,7.89s-7,5.76-7,14.4v24.28Z" transform="translate(-13.76)"/></svg>