<svg id="Layer_1" data-name="Layer 1" xmlns="http://www.w3.org/2000/svg" viewBox="0 0 470.95 467.99"><defs><style>.cls-1{fill:#404041;}</style></defs><path class="cls-1" d="M422.73,91.64A17.65,17.65,0,1,1,405.13,74,17.64,17.64,0,0,1,422.73,91.64Z" transform="translate(0.83 -0.66)"/><path class="cls-1" d="M194.61,274.7l-50.43-19.26a44.26,44.26,0,1,1,6.75-32.87,43.48,43.48,0,0,1,.35,14.37l50.44,19.23a56.5,56.5,0,0,1,92.07-6.94l46.73-26.44a70.69,70.69,0,0,1-3.36-11.55A67.25,67.25,0,1,1,350.28,240l-46.76,26.47a50.21,50.21,0,0,1,2.31,8.29,56.62,56.62,0,1,1-111.22-.1ZM441,191.62a38.57,38.57,0,1,0-30.79,45A38.58,38.58,0,0,0,441,191.62ZM218.2,291.34a32.54,32.54,0,1,0,26-38A32.59,32.59,0,0,0,218.2,291.34Zm-85.73-65.28a25.47,25.47,0,1,0-20.29,29.76A25.47,25.47,0,0,0,132.47,226.06Z" transform="translate(0.83 -0.66)"/><polygon class="cls-1" points="370.08 305.76 412.33 323.62 394.47 365.83 352.26 348.01 370.08 305.76"/><path class="cls-1" d="M367.94,374.78a198,198,0,0,1-200.62,81.54l4.7-11.23a186.18,186.18,0,0,0,184.78-75Z" transform="translate(0.83 -0.66)"/><path class="cls-1" d="M350.92.66a35.27,35.27,0,1,1-35.27,35.23A35.23,35.23,0,0,1,350.92.66Z" transform="translate(0.83 -0.66)"/><polygon class="cls-1" points="310.4 73.51 292.57 115.76 250.36 97.9 268.15 55.69 310.4 73.51"/><path class="cls-1" d="M42.66,149.31a198.17,198.17,0,0,1,200.7-81.48L238.65,79A186.3,186.3,0,0,0,53.83,154.05Z" transform="translate(0.83 -0.66)"/><polygon class="cls-1" points="161.62 425.77 143.76 467.99 101.55 450.16 119.37 407.92 161.62 425.77"/><path class="cls-1" d="M97.33,413.53l-4.78,11.2A198.36,198.36,0,0,1,11.07,224l11.24,4.7A186.12,186.12,0,0,0,97.33,413.53Z" transform="translate(0.83 -0.66)"/><polygon class="cls-1" points="60.07 174.8 42.21 217.01 0 199.19 17.82 156.94 60.07 174.8"/></svg>