<svg xmlns="http://www.w3.org/2000/svg" viewBox="0 0 1136.87 500"><defs><style>.cls-1{fill:#fff;}</style></defs><g id="art4_new" data-name="art4 new"><path class="cls-1" d="M592.63,364.51V334.34H486.31c-2.2,0-4-2.29-4-5.1v-61.6c0-2.81,1.8-5.11,4-5.11H592.63V232.37c0-3.39,2.87-5.51,5.17-3.82l89.59,66.08a5.06,5.06,0,0,1,0,7.61L597.8,368.32C595.5,370,592.63,367.9,592.63,364.51Z"/><path class="cls-1" d="M554.05,199.51H447.73V169.34c0-3.38-2.87-5.5-5.17-3.81L353,231.61a5.08,5.08,0,0,0,0,7.62l89.59,66.07c2.3,1.69,5.17-.42,5.17-3.81V271.33h0v-10h-10v28l-73.08-53.9,73.08-53.9v28H548.05v25.28h10V204.62C558.05,201.81,556.26,199.51,554.05,199.51Z"/><g id="text_copy" data-name="text copy"><path class="cls-1" d="M69.12,298.32,64.26,323.7h-13l24.12-126H95.76l24.12,126h-14L101,298.32Zm1.8-12.06H99L84.78,213.54Z"/><path class="cls-1" d="M158,196.44q14.58,0,21.51,8.64t6.93,23v10.8H173.16V227.4q0-8.64-3.51-13.41t-11.25-4.77q-7.56,0-11.16,4.77t-3.6,13.41V294q0,8.64,3.6,13.41t11.16,4.77q7.74,0,11.25-4.77T173.16,294V268.8h-13V256.2h26.28v37.08q0,14.4-6.93,23T158,325q-14.4,0-21.33-8.64t-6.93-23V228.12a46.45,46.45,0,0,1,1.71-13.05,26.88,26.88,0,0,1,5.22-10,23.25,23.25,0,0,1,8.82-6.39A31.91,31.91,0,0,1,158,196.44Z"/><path class="cls-1" d="M246.24,323.52h-13.5L211.86,223.26V323.7H199.62v-126h19.62l20.7,100.62,20-100.62h19.62v126H266.22V222.36Z"/><path class="cls-1" d="M743.67,197.7h61.2v18h-20.7v108h-19.8v-108h-20.7Z"/><path class="cls-1" d="M854.9,323.7c-.24-.84-.48-1.62-.71-2.34a15.94,15.94,0,0,1-.63-2.7,33,33,0,0,1-.37-4.14c-.06-1.68-.08-3.78-.08-6.3v-19.8c0-5.88-1-10-3.06-12.42s-5.35-3.6-9.9-3.6h-6.84v51.3h-19.8v-126h29.88q15.47,0,22.41,7.2t6.93,21.78v9.9q0,19.44-13,25.56a17.7,17.7,0,0,1,10.34,10A45.11,45.11,0,0,1,872.9,289V308.4a78.29,78.29,0,0,0,.37,8.19,25.64,25.64,0,0,0,1.8,7.11Zm-21.59-108v38.7h7.74q5.57,0,8.72-2.88t3.16-10.44V228.66c0-4.56-.82-7.86-2.43-9.9s-4.18-3.06-7.65-3.06Z"/><path class="cls-1" d="M949.94,323.7H930l-3.42-22.86h-24.3l-3.42,22.86H880.64l20.16-126h29Zm-45.18-40h19.08L914.3,220Z"/><path class="cls-1" d="M959.12,197.7h31.32q14.94,0,22.23,7.92t7.29,23.22v63.72q0,15.3-7.29,23.22t-22.23,7.92H959.12Zm19.8,18v90h11.16a10,10,0,0,0,7.38-2.7q2.7-2.7,2.7-9.54V227.94q0-6.84-2.7-9.54a10,10,0,0,0-7.38-2.7Z"/><path class="cls-1" d="M1052.36,250.8h27.18v18h-27.18v36.9h34.2v18h-54v-126h54v18h-34.2Z"/></g></g></svg>