<svg xmlns="http://www.w3.org/2000/svg" viewBox="0 0 1136.87 500"><defs><style>.cls-1{fill:#5d5d5d;}.cls-2{fill:#1665a4;}</style></defs><g id="art_1_new" data-name="art 1 new"><path class="cls-1" d="M431.82,297.09,425.52,325H418L445.5,198.81h12.06L485.64,325h-8.28l-6.3-27.91Zm1.26-7.19H469.8l-18.54-81.54Z"/><path class="cls-1" d="M524.88,197.92a28.6,28.6,0,0,1,12.33,2.43,23.32,23.32,0,0,1,8.46,6.65,27.35,27.35,0,0,1,4.86,10.08,50.18,50.18,0,0,1,1.53,12.7v9.35h-7.92v-9.89a41.8,41.8,0,0,0-1-9.36,20.62,20.62,0,0,0-3.33-7.56,16.1,16.1,0,0,0-5.94-5,22.51,22.51,0,0,0-17.64,0,16.1,16.1,0,0,0-5.94,5,20.62,20.62,0,0,0-3.33,7.56,41.8,41.8,0,0,0-1,9.36v65.51a41.89,41.89,0,0,0,1,9.37,19.64,19.64,0,0,0,3.33,7.46,16.37,16.37,0,0,0,5.94,5,22.62,22.62,0,0,0,17.64,0,16.37,16.37,0,0,0,5.94-5,19.64,19.64,0,0,0,3.33-7.46,41.89,41.89,0,0,0,1-9.37V267.58H527.4V260h24.66v34.2a50.07,50.07,0,0,1-1.53,12.7A27.2,27.2,0,0,1,545.67,317a23.24,23.24,0,0,1-8.46,6.66,32.5,32.5,0,0,1-24.66,0,23.24,23.24,0,0,1-8.46-6.66,27.2,27.2,0,0,1-4.86-10.08,50.07,50.07,0,0,1-1.53-12.7V229.78a50.18,50.18,0,0,1,1.53-12.7A27.35,27.35,0,0,1,504.09,207a23.32,23.32,0,0,1,8.46-6.65A28.6,28.6,0,0,1,524.88,197.92Z"/><path class="cls-1" d="M608.22,324.82h-8.28L573.3,213.4V325h-7.38V199H577.8l26.46,111.42L630.54,199h11.88V325H634.5V213Z"/><path class="cls-2" d="M696.86,325V211.77H673.64V199h60.3v12.77H710.72V325Z"/><path class="cls-2" d="M771.56,199q14.94,0,21.51,7.38t6.57,21.41v10.27q0,10.44-3.78,16.92A20,20,0,0,1,784,264q8.64,2.52,12.24,9.27t3.6,17v19.63c0,2.76.11,5.43.36,8a17.93,17.93,0,0,0,2.16,7.12H788.12a22.92,22.92,0,0,1-1.8-5.85,60.73,60.73,0,0,1-.54-9.45V289.9q0-10.62-4.77-14.67c-3.18-2.7-7.72-4.05-13.59-4.05h-9.9V325h-14V199ZM768,258.4c5.64,0,10-1.17,13.14-3.51s4.68-6.93,4.68-13.77V229.06c0-5.77-1.11-10.08-3.33-13s-6-4.33-11.25-4.33H757.52V258.4Z"/><path class="cls-2" d="M828.62,299.62,823.75,325h-13l24.13-126h20.33l24.13,126h-14l-4.85-25.38Zm1.8-12.07H858.5l-14.22-72.72Z"/><path class="cls-2" d="M919.88,199q14.75,0,21.69,8.37t6.93,22.94v63.55q0,14.58-6.93,22.85T919.88,325H890.36V199Zm-.18,113.21c5,0,8.78-1.52,11.25-4.59s3.69-7.46,3.69-13.22V229.6c0-5.77-1.24-10.17-3.69-13.23s-6.28-4.6-11.43-4.6H904.4V312.21Z"/><path class="cls-2" d="M1006.45,254.79V267.4H975.67v44.81h37.8V325H961.63V199h51.84v12.77h-37.8v43Z"/><path class="cls-2" d="M291.72,360V329.85H185.4c-2.2,0-4-2.3-4-5.11V263.15c0-2.82,1.8-5.11,4-5.11H291.72V227.87c0-3.38,2.87-5.5,5.17-3.81l89.59,66.08a5.07,5.07,0,0,1,0,7.61l-89.59,66.08C294.59,365.52,291.72,363.4,291.72,360Z"/><path class="cls-2" d="M253.14,195H146.82V164.85c0-3.38-2.87-5.5-5.17-3.81L52.06,227.12a5.07,5.07,0,0,0,0,7.61l89.59,66.08c2.3,1.69,5.17-.42,5.17-3.82V266.83h0v-10h-10v28l-73.08-53.9L136.82,177v28H247.14v25.28h10V200.12C257.14,197.32,255.34,195,253.14,195Z"/></g></svg>