<svg xmlns="http://www.w3.org/2000/svg" viewBox="0 0 916.63 240"><defs><style>.cls-1{fill:#5d5d5d;}.cls-2{fill:#1665a4;}.cls-3{fill:#d2d2d2;}.cls-4{fill:#050606;}</style></defs><g id="Layer_1" data-name="Layer 1"><path class="cls-1" d="M470.38,299.62,465.52,325h-13l24.12-126H497l24.12,126h-14l-4.86-25.38Zm1.8-12.07h28.08L486,214.83Z" transform="translate(-135.57 -138.78)"/><path class="cls-1" d="M559.3,197.74q14.58,0,21.51,8.64t6.93,23v10.79H574.42V228.7q0-8.64-3.51-13.41c-2.34-3.18-6.1-4.78-11.25-4.78s-8.76,1.6-11.16,4.78-3.6,7.65-3.6,13.41v66.59c0,5.76,1.19,10.24,3.6,13.42s6.12,4.77,11.16,4.77,8.91-1.59,11.25-4.77,3.51-7.66,3.51-13.42v-25.2h-13V257.5h26.28v37.08q0,14.4-6.93,23t-21.51,8.63q-14.41,0-21.33-8.63t-6.93-23V229.42a46.08,46.08,0,0,1,1.71-13,26.74,26.74,0,0,1,5.22-10,23.25,23.25,0,0,1,8.82-6.39A31.87,31.87,0,0,1,559.3,197.74Z" transform="translate(-135.57 -138.78)"/><path class="cls-1" d="M647.49,324.82H634L613.11,224.55V325H600.87V199h19.62l20.7,100.62,20-100.62h19.62V325H667.47V223.66Z" transform="translate(-135.57 -138.78)"/><path class="cls-2" d="M709.31,199h61.2v18h-20.7V325H730V217h-20.7Z" transform="translate(-135.57 -138.78)"/><path class="cls-2" d="M820.55,325q-.36-1.26-.72-2.34a18.15,18.15,0,0,1-.63-2.7,33.22,33.22,0,0,1-.36-4.14q-.09-2.52-.09-6.31v-19.8q0-8.81-3.06-12.42t-9.9-3.59H799V325h-19.8V199H809q15.48,0,22.41,7.2T838.37,228v9.9q0,19.44-13,25.56a17.73,17.73,0,0,1,10.35,10,45.18,45.18,0,0,1,2.79,16.83V309.7a81.19,81.19,0,0,0,.36,8.18,26.33,26.33,0,0,0,1.8,7.12ZM799,217v38.7h7.74q5.58,0,8.73-2.88t3.15-10.44V230q0-6.84-2.43-9.9T808.49,217Z" transform="translate(-135.57 -138.78)"/><path class="cls-2" d="M915.59,325h-20l-3.42-22.87h-24.3L864.47,325H846.29l20.16-126h29Zm-45.18-40h19.08L880,221.32Z" transform="translate(-135.57 -138.78)"/><path class="cls-2" d="M924.77,199h31.32q14.94,0,22.23,7.92t7.29,23.22v63.72q0,15.3-7.29,23.22T956.09,325H924.77Zm19.8,18v90h11.16a10,10,0,0,0,7.38-2.71q2.7-2.69,2.7-9.54V229.24q0-6.84-2.7-9.54a10,10,0,0,0-7.38-2.7Z" transform="translate(-135.57 -138.78)"/><path class="cls-2" d="M1018,252.1h27.18v18H1018V307h34.2v18h-54V199h54v18H1018Z" transform="translate(-135.57 -138.78)"/></g><g id="Layer_2" data-name="Layer 2"><rect class="cls-3" width="240" height="240"/><rect class="cls-4" x="170" y="170" width="70" height="70"/><polygon class="cls-2" points="62.44 132.44 62.44 170 132.44 170 132.44 240 170 240 170 170 240 170 240 132.44 62.44 132.44"/></g></svg>