<svg xmlns="http://www.w3.org/2000/svg" viewBox="0 0 1136.87 500"><defs><style>.cls-1{fill:#d2d2d2;}.cls-2{fill:#1665a4;}.cls-3{fill:#fff;}</style></defs><g id="art4"><g id="logo"><rect class="cls-1" x="387.49" y="137.48" width="240" height="240"/><polygon class="cls-2" points="449.93 269.91 449.93 307.48 519.93 307.48 519.93 377.48 557.5 377.48 557.5 307.48 627.5 307.48 627.5 269.91 449.93 269.91"/><rect class="cls-3" x="557.49" y="307.48" width="70" height="70"/></g><g id="text"><path class="cls-3" d="M104.34,298.32,99.48,323.7h-13l24.12-126H131l24.12,126h-14l-4.86-25.38Zm1.8-12.06h28.08L120,213.54Z"/><path class="cls-3" d="M193.26,196.44q14.58,0,21.51,8.64t6.93,23v10.8H208.38V227.4q0-8.64-3.51-13.41t-11.25-4.77q-7.56,0-11.16,4.77t-3.6,13.41V294q0,8.64,3.6,13.41t11.16,4.77q7.74,0,11.25-4.77T208.38,294V268.8h-13V256.2H221.7v37.08q0,14.4-6.93,23T193.26,325q-14.4,0-21.33-8.64t-6.93-23V228.12a46.45,46.45,0,0,1,1.71-13.05,26.88,26.88,0,0,1,5.22-10,23.25,23.25,0,0,1,8.82-6.39A31.91,31.91,0,0,1,193.26,196.44Z"/><path class="cls-3" d="M281.46,323.52H268L247.08,223.26V323.7H234.84v-126h19.62l20.7,100.62,20-100.62h19.62v126H301.44V222.36Z"/><path class="cls-3" d="M673.23,197.7h61.2v18h-20.7v108h-19.8v-108h-20.7Z"/><path class="cls-3" d="M784.47,323.7q-.36-1.26-.72-2.34a18.15,18.15,0,0,1-.63-2.7,33.22,33.22,0,0,1-.36-4.14q-.09-2.52-.09-6.3v-19.8q0-8.82-3.06-12.42t-9.9-3.6h-6.84v51.3h-19.8v-126H773q15.48,0,22.41,7.2t6.93,21.78v9.9q0,19.44-13,25.56a17.72,17.72,0,0,1,10.35,10A45.11,45.11,0,0,1,802.47,289V308.4a81.4,81.4,0,0,0,.36,8.19,26.36,26.36,0,0,0,1.8,7.11Zm-21.6-108v38.7h7.74q5.58,0,8.73-2.88t3.15-10.44V228.66q0-6.84-2.43-9.9t-7.65-3.06Z"/><path class="cls-3" d="M879.51,323.7h-20l-3.42-22.86h-24.3l-3.42,22.86H810.21l20.16-126h29Zm-45.18-40h19.08L843.87,220Z"/><path class="cls-3" d="M888.69,197.7H920q14.94,0,22.23,7.92t7.29,23.22v63.72q0,15.3-7.29,23.22T920,323.7H888.69Zm19.8,18v90h11.16A10,10,0,0,0,927,303q2.7-2.7,2.7-9.54V227.94q0-6.84-2.7-9.54a10,10,0,0,0-7.38-2.7Z"/><path class="cls-3" d="M981.93,250.8h27.18v18H981.93v36.9h34.2v18h-54v-126h54v18h-34.2Z"/></g></g></svg>