<svg id="Layer_1" data-name="Layer 1" xmlns="http://www.w3.org/2000/svg" viewBox="0 0 477.42 477"><defs><style>.cls-1{fill:#404041;}</style></defs><path class="cls-1" d="M240.2,279.46A39.26,39.26,0,1,0,201,240.2,39.27,39.27,0,0,0,240.2,279.46ZM280,438.52a40.15,40.15,0,1,1-52.71-38.12V301.62A62.47,62.47,0,0,1,200,288.57l-76.52,76.55a28.37,28.37,0,1,1-8.86-8.92l76.56-76.57a62.27,62.27,0,0,1-12.73-26.84H79.74a40.18,40.18,0,1,1,0-25.18h98.69a63.08,63.08,0,0,1,12.95-27.15l-76.63-76.68a28.56,28.56,0,1,1,8.87-8.92l76.67,76.74a62.15,62.15,0,0,1,27-12.82V80a40.14,40.14,0,1,1,25.14,0v98.78a62.51,62.51,0,0,1,26.85,12.68l76.67-76.74a28.39,28.39,0,1,1,8.87,8.92l-76.6,76.68a62.19,62.19,0,0,1,13,27.29h99.47a40.18,40.18,0,1,1,0,25.18H301.21a62,62,0,0,1-12.78,27l76.5,76.57a28.58,28.58,0,1,1-8.86,8.92l-76.52-76.57a62.25,62.25,0,0,1-27.16,12.93V400.4A40.09,40.09,0,0,1,280,438.52Z" transform="translate(-1.49 -1.7)"/></svg>